<svg xmlns="http://www.w3.org/2000/svg" viewBox="0 0 512 512" role="img" aria-labelledby="title">
  <title id="title">Connect 4</title>
  <rect width="512" height="512" rx="96" fill="#f8fafc"/>
  <rect x="76" y="108" width="360" height="296" rx="34" fill="#1d4ed8"/>
  <g fill="#f8fafc">
    <circle cx="132" cy="164" r="29"/><circle cx="194" cy="164" r="29"/><circle cx="256" cy="164" r="29"/><circle cx="318" cy="164" r="29"/><circle cx="380" cy="164" r="29"/>
    <circle cx="132" cy="226" r="29"/><circle cx="194" cy="226" r="29"/><circle cx="256" cy="226" r="29"/><circle cx="318" cy="226" r="29"/><circle cx="380" cy="226" r="29"/>
    <circle cx="132" cy="288" r="29"/><circle cx="194" cy="288" r="29"/><circle cx="256" cy="288" r="29"/><circle cx="318" cy="288" r="29"/><circle cx="380" cy="288" r="29"/>
    <circle cx="132" cy="350" r="29"/><circle cx="194" cy="350" r="29"/><circle cx="256" cy="350" r="29"/><circle cx="318" cy="350" r="29"/><circle cx="380" cy="350" r="29"/>
  </g>
  <circle cx="194" cy="350" r="24" fill="#ef4444"/>
  <circle cx="256" cy="350" r="24" fill="#eab308"/>
  <circle cx="256" cy="288" r="24" fill="#ef4444"/>
  <circle cx="318" cy="350" r="24" fill="#eab308"/>
</svg>
